<svg xmlns="http://www.w3.org/2000/svg" version="1.1" xmlns:xlink="http://www.w3.org/1999/xlink" xmlns:svgjs="http://svgjs.dev/svgjs" width="48" height="48"><svg width="48" height="48" viewBox="0 0 48 48" fill="none" xmlns="http://www.w3.org/2000/svg">
  <rect width="48" height="48" rx="24" fill="#4F46E5" fill-opacity="0.1" data-darkreader-inline-fill="" style="--darkreader-inline-fill: var(--darkreader-background-4f46e5, #1d169c);"></rect>
  <path d="M24 12C17.373 12 12 17.373 12 24C12 30.627 17.373 36 24 36C30.627 36 36 30.627 36 24C36 17.373 30.627 12 24 12ZM24 34C18.477 34 14 29.523 14 24C14 18.477 18.477 14 24 14C29.523 14 34 18.477 34 24C34 29.523 29.523 34 24 34Z" fill="#4F46E5" data-darkreader-inline-fill="" style="--darkreader-inline-fill: var(--darkreader-text-4f46e5, #5184e7);"></path>
  <path d="M30 24C30 27.314 27.314 30 24 30C20.686 30 18 27.314 18 24C18 20.686 20.686 18 24 18C27.314 18 30 20.686 30 24Z" fill="#4F46E5" data-darkreader-inline-fill="" style="--darkreader-inline-fill: var(--darkreader-text-4f46e5, #5184e7);"></path>
  <path d="M24 16C19.582 16 16 19.582 16 24C16 28.418 19.582 32 24 32C28.418 32 32 28.418 32 24C32 19.582 28.418 16 24 16ZM24 30C20.686 30 18 27.314 18 24C18 20.686 20.686 18 24 18C27.314 18 30 20.686 30 24C30 27.314 27.314 30 24 30Z" fill="#4F46E5" data-darkreader-inline-fill="" style="--darkreader-inline-fill: var(--darkreader-text-4f46e5, #5184e7);"></path>
  <path d="M24 20C21.791 20 20 21.791 20 24C20 26.209 21.791 28 24 28C26.209 28 28 26.209 28 24C28 21.791 26.209 20 24 20ZM24 26C22.895 26 22 25.105 22 24C22 22.895 22.895 22 24 22C25.105 22 26 22.895 26 24C26 25.105 25.105 26 24 26Z" fill="#4F46E5" data-darkreader-inline-fill="" style="--darkreader-inline-fill: var(--darkreader-text-4f46e5, #5184e7);"></path>
</svg><style>@media (prefers-color-scheme: light) { :root { filter: none; } }
@media (prefers-color-scheme: dark) { :root { filter: none; } }
</style></svg>